<?xml version="1.0" standalone="no"?>
<!DOCTYPE svg PUBLIC "-//W3C//DTD SVG 20010904//EN"
 "http://www.w3.org/TR/2001/REC-SVG-20010904/DTD/svg10.dtd">
<svg version="1.0" xmlns="http://www.w3.org/2000/svg"
 width="500.000000pt" height="500.000000pt" viewBox="0 0 500.000000 500.000000"
 preserveAspectRatio="xMidYMid meet">

<g transform="translate(0.000000,500.000000) scale(0.100000,-0.100000)"
fill="#000000" stroke="none">
<path d="M0 2500 l0 -2500 2500 0 2500 0 0 2500 0 2500 -2500 0 -2500 0 0
-2500z m2541 1171 l23 -18 -32 -17 c-31 -16 -34 -16 -63 1 l-29 18 22 17 c30
23 50 22 79 -1z m-61 -114 l0 -28 -30 18 c-22 13 -30 25 -30 46 l0 28 30 -18
c22 -13 30 -25 30 -46z m108 36 c-2 -18 -14 -33 -35 -46 l-33 -19 0 29 c0 20
8 33 28 45 38 23 44 22 40 -9z m-488 -183 c0 -5 -12 -16 -27 -24 -24 -12 -31
-12 -55 0 -35 18 -35 25 -1 46 24 14 30 15 55 2 15 -8 28 -19 28 -24z m908 7
c10 -8 5 -14 -18 -29 -30 -18 -32 -18 -61 -1 -36 21 -36 24 -2 45 27 16 46 13
81 -15z m-392 -53 c199 -94 206 -372 12 -480 -46 -25 -63 -29 -128 -29 -58 0
-85 6 -116 22 -217 115 -197 413 33 499 49 18 147 12 199 -12z m-615 -15 c29
-21 40 -59 16 -59 -25 0 -57 31 -57 56 0 29 4 30 41 3z m129 -6 c0 -21 -8 -33
-30 -45 l-30 -17 0 28 c0 18 8 34 23 44 31 22 37 21 37 -10z m781 10 c21 -13
29 -25 29 -46 l0 -29 -32 19 c-22 13 -34 28 -36 46 -4 32 0 33 39 10z m129
-10 c0 -21 -8 -33 -30 -45 l-30 -17 0 29 c0 22 7 33 28 44 15 8 28 15 30 16 1
0 2 -12 2 -27z m-956 -392 l29 -19 -34 -17 c-31 -17 -35 -17 -66 0 l-33 18 27
19 c35 22 41 22 77 -1z m907 4 c34 -18 32 -27 -11 -45 -25 -11 -34 -10 -57 5
l-26 18 24 18 c29 23 33 23 70 4z m-861 -85 c0 -23 -7 -33 -30 -45 -30 -15
-30 -15 -30 12 0 24 24 50 58 62 1 1 2 -12 2 -29z m888 -42 c-32 -24 -38 -23
-38 10 0 19 8 31 28 43 26 15 27 14 30 -10 3 -17 -4 -30 -20 -43z m-1013 46
c22 -14 37 -64 19 -64 -22 0 -64 37 -64 57 0 27 12 29 45 7z m910 0 c24 -16
36 -64 16 -64 -18 0 -61 42 -61 61 0 23 13 24 45 3z m-374 -173 l23 -18 -32
-17 c-30 -15 -34 -15 -64 0 l-31 16 24 19 c31 24 51 24 80 0z m-61 -114 c0
-27 0 -27 -30 -12 -23 12 -30 22 -30 45 l0 29 30 -17 c22 -12 30 -24 30 -45z
m110 39 c0 -16 -11 -32 -29 -45 -37 -27 -41 -26 -41 3 0 15 11 32 28 45 35 27
42 26 42 -3z m-971 -280 c25 -22 27 -49 6 -66 -13 -11 -12 -15 5 -37 26 -33
25 -39 -5 -68 -21 -22 -33 -25 -95 -25 l-70 0 0 111 0 111 69 -4 c50 -2 75 -9
90 -22z m169 -63 l3 -83 44 0 c41 0 45 -2 45 -25 0 -24 -2 -25 -75 -25 l-75 0
0 111 0 110 28 -3 c27 -3 27 -4 30 -85z m352 52 c75 -72 23 -185 -85 -185 -47
0 -79 19 -100 60 -19 37 -19 54 1 95 32 68 128 83 184 30z m265 21 c38 -16 43
-27 21 -45 -11 -9 -20 -9 -35 -2 -44 24 -91 -1 -91 -47 0 -50 52 -78 100 -52
13 7 21 5 31 -6 34 -41 -88 -74 -139 -38 -25 17 -52 64 -52 89 0 33 32 84 63
99 40 19 59 20 102 2z m175 -33 l1 -48 40 48 c32 36 48 47 70 47 38 0 37 -9
-6 -50 -19 -19 -35 -38 -35 -43 0 -4 18 -35 40 -68 l41 -59 -34 0 c-29 0 -39
6 -61 41 -22 33 -30 38 -42 28 -8 -6 -14 -24 -14 -40 0 -26 -4 -29 -30 -29
l-30 0 0 103 c0 57 3 107 7 110 3 4 17 7 30 7 21 0 23 -5 23 -47z m383 28 c5
-5 6 -18 2 -30 -5 -17 -10 -19 -31 -11 -14 6 -37 10 -50 10 -38 0 -24 -22 24
-40 53 -20 65 -32 65 -66 0 -57 -86 -84 -154 -49 -25 13 -28 19 -19 35 13 24
10 24 48 4 34 -16 76 -11 69 9 -2 7 -22 18 -46 26 -53 17 -78 52 -62 87 6 13
21 29 33 34 26 11 107 5 121 -9z m255 -2 c12 -8 29 -29 38 -48 14 -28 14 -40
5 -73 -17 -55 -58 -78 -138 -78 l-63 0 0 111 0 112 68 -5 c37 -3 77 -11 90
-19z m299 -79 c23 -52 42 -101 42 -107 1 -21 -47 -15 -59 7 -8 15 -21 20 -55
20 -34 0 -47 -5 -55 -20 -9 -18 -60 -30 -60 -14 0 3 14 37 31 77 17 40 38 87
45 105 12 27 19 33 42 30 23 -3 32 -15 69 -98z m-1725 -324 l31 -64 30 64 c27
57 33 64 59 64 l28 0 0 -110 0 -110 -25 0 c-24 0 -25 3 -26 63 l-1 62 -24 -52
c-32 -71 -52 -70 -86 5 l-26 57 -1 -67 c-1 -66 -2 -68 -26 -68 l-25 0 0 103
c0 57 3 107 7 110 3 4 17 7 30 7 19 0 29 -13 55 -64z m415 -36 c23 -52 42
-101 42 -107 1 -21 -47 -15 -59 7 -8 15 -21 20 -55 20 -34 0 -47 -5 -55 -20
-9 -18 -60 -30 -60 -14 0 3 14 37 31 77 17 40 38 87 45 105 12 27 19 33 42 30
23 -3 32 -15 69 -98z m279 79 c35 -29 36 -99 2 -120 -7 -5 -3 -19 11 -43 l23
-36 -31 0 c-23 0 -34 7 -48 30 -11 19 -25 30 -40 30 -19 0 -23 -5 -23 -30 0
-25 -4 -30 -25 -30 l-25 0 0 111 0 112 70 -5 c38 -3 77 -11 86 -19z m174 -26
l1 -48 44 48 c30 33 51 47 69 47 33 0 33 -10 0 -41 -43 -40 -45 -52 -20 -90
12 -19 31 -46 41 -61 l17 -28 -34 0 c-26 0 -37 6 -51 28 -35 58 -34 57 -51 43
-9 -8 -16 -26 -16 -42 0 -24 -4 -29 -25 -29 l-25 0 0 110 0 110 25 0 c23 0 25
-4 25 -47z m400 22 c0 -24 -3 -25 -60 -25 -53 0 -60 -2 -60 -20 0 -18 7 -20
55 -20 48 0 55 -3 55 -19 0 -17 -8 -20 -52 -23 -45 -3 -53 -6 -53 -23 0 -17 8
-20 58 -23 49 -3 57 -6 57 -22 0 -18 -7 -20 -85 -20 l-85 0 0 110 0 110 85 0
c84 0 85 0 85 -25z m250 0 c0 -21 -5 -25 -30 -25 l-30 0 0 -85 0 -85 -30 0
-30 0 0 85 0 85 -30 0 c-25 0 -30 4 -30 25 0 25 1 25 90 25 89 0 90 0 90 -25z
m-1502 -377 c36 -36 -11 -93 -57 -69 -39 21 -21 81 24 81 12 0 26 -5 33 -12z
m71 -38 c0 -9 -4 -8 -9 5 -5 11 -9 27 -9 35 0 9 4 8 9 -5 5 -11 9 -27 9 -35z
m51 40 c0 -5 -4 -10 -10 -10 -5 0 -10 5 -10 10 0 6 5 10 10 10 6 0 10 -4 10
-10z m44 -24 c-3 -15 -8 -25 -11 -23 -2 3 -1 17 3 31 3 15 8 25 11 23 2 -3 1
-17 -3 -31z m119 5 c3 26 4 22 5 -16 l1 -50 -28 35 -29 35 -5 -35 c-3 -28 -4
-25 -5 15 l-1 50 29 -34 29 -34 4 34z m152 -11 c17 0 25 7 28 23 2 12 4 0 4
-28 0 -27 -2 -40 -4 -27 -3 15 -11 22 -28 22 -17 0 -25 -7 -28 -22 -2 -13 -4
0 -4 27 0 28 2 40 4 28 3 -16 11 -23 28 -23z m163 28 c32 -32 -4 -87 -48 -73
-25 8 -37 50 -20 70 15 18 51 20 68 3z m95 -71 c18 -4 17 -5 -5 -6 -27 -1 -28
1 -26 47 l1 47 4 -42 c3 -33 8 -43 26 -46z m125 71 c31 -31 3 -78 -47 -78 -18
0 -21 6 -21 45 0 43 1 45 28 45 15 0 33 -5 40 -12z m160 5 c-13 -3 -18 -16
-20 -46 l-1 -42 -4 42 c-3 29 -9 43 -21 46 -9 3 1 5 23 5 22 0 32 -2 23 -5z
m119 -9 c3 -9 1 -24 -5 -34 -8 -13 -7 -21 1 -31 7 -7 3 -6 -9 4 -26 22 -41 22
-47 0 -3 -10 -5 3 -6 30 -1 46 0 47 29 47 19 0 33 -6 37 -16z m118 -39 c10
-25 11 -35 4 -27 -16 15 -69 16 -69 0 0 -6 -3 -9 -6 -6 -3 3 4 25 16 48 24 46
30 45 55 -15z m123 43 c31 -31 3 -78 -47 -78 -18 0 -21 6 -21 45 0 43 1 45 28
45 15 0 33 -5 40 -12z m100 5 c-34 -5 -38 -32 -5 -34 l22 -2 -22 -4 c-32 -6
-29 -31 5 -36 25 -4 25 -4 -5 -6 -33 -1 -33 0 -33 44 0 44 0 45 33 44 30 -2
30 -2 5 -6z m-1341 -45 c-3 -8 -6 -5 -6 6 -1 11 2 17 5 13 3 -3 4 -12 1 -19z
m48 -36 c-8 -8 -13 0 -20 33 l-7 30 16 -29 c9 -16 14 -31 11 -34z m-55 8 c0
-5 -4 -10 -10 -10 -5 0 -10 5 -10 10 0 6 5 10 10 10 6 0 10 -4 10 -10z"/>
<path d="M2455 3341 c-108 -27 -175 -112 -175 -221 0 -129 93 -222 221 -222
110 0 195 70 220 180 11 45 10 60 -4 106 -35 111 -156 183 -262 157z m101 -46
c137 -40 177 -208 74 -306 -118 -113 -312 -31 -312 131 0 83 55 155 140 180
39 12 43 12 98 -5z"/>
<path d="M2433 3227 l-53 -32 0 -75 0 -75 54 -33 c30 -17 60 -32 66 -32 7 0
37 14 66 31 l54 30 0 79 0 79 -54 30 c-29 17 -60 31 -67 31 -8 -1 -38 -15 -66
-33z m97 -22 c37 -19 37 -26 1 -46 -27 -16 -31 -16 -62 3 l-32 20 29 19 c35
23 29 22 64 4z m-50 -130 c0 -40 -2 -41 -35 -19 -19 12 -25 25 -25 50 l0 35
30 -16 c25 -13 30 -22 30 -50z m110 30 c0 -28 -5 -37 -30 -50 -39 -20 -40 -20
-40 19 0 23 7 38 23 49 35 25 47 21 47 -18z"/>
<path d="M1510 2299 c0 -17 5 -20 32 -17 22 2 34 9 36 21 3 14 -4 17 -32 17
-30 0 -36 -4 -36 -21z"/>
<path d="M1510 2215 c0 -21 5 -25 29 -25 31 0 57 22 46 40 -3 5 -22 10 -41 10
-30 0 -34 -3 -34 -25z"/>
<path d="M2017 2302 c-18 -19 -22 -59 -9 -78 15 -23 51 -35 72 -24 42 22 51
69 20 100 -25 25 -62 26 -83 2z"/>
<path d="M3110 2260 c0 -67 10 -78 57 -63 66 22 51 115 -20 121 l-37 3 0 -61z"/>
<path d="M3432 2275 c-17 -37 -15 -45 13 -45 28 0 31 13 12 48 l-13 23 -12
-26z"/>
<path d="M2122 1915 c-17 -37 -15 -45 13 -45 28 0 31 13 12 48 l-13 23 -12
-26z"/>
<path d="M2380 1930 c0 -36 20 -48 56 -31 18 8 24 18 22 34 -2 18 -10 23 -40
25 -36 3 -38 2 -38 -28z"/>
<path d="M1743 1594 c-15 -39 38 -67 60 -32 8 12 7 21 -2 32 -17 21 -50 20
-58 0z"/>
<path d="M2351 1596 c-15 -18 -8 -44 14 -52 21 -9 47 15 43 40 -4 26 -40 33
-57 12z"/>
<path d="M2570 1576 c0 -28 4 -36 18 -36 28 0 44 16 40 41 -2 18 -10 25 -30
27 -26 3 -28 1 -28 -32z"/>
<path d="M2850 1590 c0 -16 5 -21 23 -18 12 2 22 10 22 18 0 8 -10 16 -22 18
-18 3 -23 -2 -23 -18z"/>
<path d="M2986 1593 c-12 -12 -6 -33 9 -33 8 0 15 6 15 14 0 17 -14 28 -24 19z"/>
<path d="M3090 1575 c0 -28 4 -35 19 -35 26 0 44 25 36 50 -4 13 -15 20 -31
20 -21 0 -24 -5 -24 -35z"/>
</g>
</svg>
